# xmcd
#
# Track frame offsets:
# 150
# 16836
# 31610
# 45342
# 63533
# 81436
# 94237
# 111517
# 124602
# 140669
# 153872
# 166906
# 180453
# 199660
# 209983
# 231927
#
# Disc length: 3296 seconds
#
#
# Revision: 0
# Processed by: cddbd v1.5.1PL0 Copyright (c) Steve Scherf et al.
# Submitted via: FreeRIP 2.80 
#
DISCID=d80cde10
DTITLE=Joe Wright and Harmoni - A DADDY'S DREAM
DYEAR=2003
DGENRE=Country
TTITLE0=Wine Me Up
TTITLE1=Daddy Frank
TTITLE2=Four Walls
TTITLE3=Cry
TTITLE4=The Rose
TTITLE5=Rocky Top
TTITLE6=If Tomorrow never Comes
TTITLE7=You Just Can't Help
TTITLE8=Rock and Roll Heart
TTITLE9=Let It Rip
TTITLE10=Heart Afraid of Love
TTITLE11=Let Him Fly
TTITLE12=Cold Day In July
TTITLE13=My Heart Must Like To See Me Cry
TTITLE14=Why You Love Me Like That
TTITLE15=Getting Over You
EXTD=
EXTT0=
EXTT1=
EXTT2=
EXTT3=
EXTT4=
EXTT5=
EXTT6=
EXTT7=
EXTT8=
EXTT9=
EXTT10=
EXTT11=
EXTT12=
EXTT13=
EXTT14=
EXTT15=
PLAYORDER=
